<svg width="65" height="69" viewBox="0 0 65 69" fill="none" xmlns="http://www.w3.org/2000/svg">
<path d="M57.1479 47.1146V32.05H59.95V47C59.95 48.5027 59.9493 49.8675 59.5158 50.9924C59.0846 52.1115 58.2227 52.9976 56.4852 53.5352C56.2323 53.6134 55.8438 53.667 55.3787 53.6992C54.9145 53.7314 54.3775 53.7421 53.8292 53.7359C52.7322 53.7235 51.5936 53.6435 50.9079 53.5336C49.3508 53.2838 48.4388 52.4008 47.9137 51.221C47.3871 50.0378 47.25 48.556 47.25 47.1154V32C47.25 31.8793 47.2525 31.747 47.2552 31.6063C47.2671 30.9745 47.2823 30.1728 47.0881 29.4846C46.9688 29.0622 46.7697 28.6775 46.4389 28.3986C46.1075 28.1191 45.6491 27.95 45.0196 27.95H42.05V25.05H45.0196C46.7537 25.05 48.0594 25.4301 48.9321 26.2751C49.8045 27.1199 50.2538 28.4387 50.2538 30.3382L50.2538 47.1154L50.2539 47.1168L50.3038 47.1154L50.2539 47.1169L50.2539 47.117L50.2539 47.1173L50.2539 47.1184L50.254 47.123L50.2546 47.1405C50.2552 47.1559 50.2561 47.1786 50.2574 47.2076C50.26 47.2658 50.2644 47.3497 50.2713 47.4529C50.2851 47.6593 50.3092 47.9433 50.3502 48.2534C50.3912 48.5633 50.4493 48.9002 50.5311 49.2122C50.6128 49.5235 50.7191 49.8134 50.8581 50.0273C51.1372 50.4566 51.6261 50.7113 52.1639 50.8591C52.7025 51.0071 53.2977 51.05 53.8 51.05C54.804 51.05 55.7768 50.9096 56.5378 50.0328C56.7127 49.8312 56.8366 49.5461 56.925 49.2364C57.0136 48.9259 57.0677 48.5864 57.1006 48.2726C57.1336 47.9586 57.1454 47.6691 57.1489 47.4581C57.1507 47.3526 57.1505 47.2667 57.1497 47.207C57.1494 47.1772 57.1489 47.154 57.1485 47.1381L57.148 47.12L57.1479 47.1154L57.1479 47.1146Z" fill="#DDDBDB" stroke="#DDDBDB" stroke-width="0.1"/>
<path d="M57 32C52.5556 32 52.5 25.6364 52.5 22H64.5C64.5 25.6364 64.5 32 60.5 32H57Z" fill="#DDDBDB" stroke="#DDDBDB"/>
<rect y="65" width="47" height="4" fill="#DDDBDB"/>
<rect x="5" width="37" height="69" rx="3" fill="#DDDBDB"/>
<rect x="8" y="3" width="31" height="19" rx="2" fill="#F3F3F3" fill-opacity="0.73"/>
<rect x="8" y="25" width="31" height="12" fill="#495B73"/>
<rect x="8" y="38" width="31" height="10" fill="#C5A09D"/>
<rect x="8" y="49" width="31" height="16" fill="#C0AE9A"/>
<line x1="55.75" y1="21.25" x2="55.75" y2="15.75" stroke="#DDDBDB" stroke-width="1.5" stroke-linecap="round" stroke-linejoin="round"/>
<line x1="61.25" y1="21.25" x2="61.25" y2="15.75" stroke="#DDDBDB" stroke-width="1.5" stroke-linecap="round" stroke-linejoin="round"/>
<path d="M18.1316 11H17.675V7.47925H16.4316V7.07373H19.375V7.47925H18.1316V11ZM22.4419 9.52563C22.4419 10.0055 22.321 10.3805 22.0793 10.6509C21.8376 10.9194 21.5037 11.0537 21.0776 11.0537C20.8145 11.0537 20.5808 10.9919 20.3767 10.8684C20.1726 10.7449 20.0151 10.5676 19.9041 10.3367C19.7931 10.1057 19.7375 9.83537 19.7375 9.52563C19.7375 9.04582 19.8575 8.67253 20.0974 8.40576C20.3373 8.13721 20.6703 8.00293 21.0964 8.00293C21.5082 8.00293 21.835 8.13989 22.0767 8.41382C22.3201 8.68774 22.4419 9.05835 22.4419 9.52563ZM20.1995 9.52563C20.1995 9.90161 20.2747 10.1881 20.425 10.385C20.5754 10.5819 20.7965 10.6804 21.0884 10.6804C21.3802 10.6804 21.6013 10.5828 21.7517 10.3877C21.9039 10.1908 21.98 9.9034 21.98 9.52563C21.98 9.15145 21.9039 8.86768 21.7517 8.67432C21.6013 8.47917 21.3784 8.38159 21.083 8.38159C20.7912 8.38159 20.571 8.47738 20.4224 8.66895C20.2738 8.86051 20.1995 9.14608 20.1995 9.52563ZM24.1768 10.6858C24.2555 10.6858 24.3316 10.6804 24.405 10.6697C24.4784 10.6571 24.5366 10.6446 24.5796 10.6321V10.9731C24.5312 10.9964 24.4596 11.0152 24.3647 11.0295C24.2716 11.0457 24.1875 11.0537 24.1123 11.0537C23.543 11.0537 23.2583 10.7538 23.2583 10.1541V8.40308H22.8367V8.18823L23.2583 8.00293L23.4463 7.37451H23.7041V8.05664H24.5581V8.40308H23.7041V10.1353C23.7041 10.3125 23.7462 10.4486 23.8303 10.5435C23.9145 10.6383 24.0299 10.6858 24.1768 10.6858ZM26.9805 11L26.8918 10.5811H26.8704C26.7236 10.7655 26.5767 10.8908 26.4299 10.957C26.2849 11.0215 26.1032 11.0537 25.8848 11.0537C25.5929 11.0537 25.3638 10.9785 25.1973 10.8281C25.0326 10.6777 24.9502 10.4638 24.9502 10.1863C24.9502 9.59188 25.4255 9.28035 26.3762 9.25171L26.8757 9.2356V9.05298C26.8757 8.82202 26.8256 8.65194 26.7253 8.54272C26.6269 8.43172 26.4684 8.37622 26.25 8.37622C26.0047 8.37622 25.7272 8.45142 25.4175 8.60181L25.2805 8.26074C25.4255 8.18197 25.584 8.1202 25.7559 8.07544C25.9295 8.03068 26.1032 8.0083 26.2769 8.0083C26.6278 8.0083 26.8874 8.08618 27.0557 8.24194C27.2257 8.39771 27.3108 8.64746 27.3108 8.99121V11H26.9805ZM25.9734 10.6858C26.2509 10.6858 26.4684 10.6097 26.626 10.4575C26.7853 10.3053 26.865 10.0923 26.865 9.81836V9.55249L26.4192 9.57129C26.0647 9.58382 25.8087 9.63932 25.6511 9.73779C25.4954 9.83447 25.4175 9.98576 25.4175 10.1917C25.4175 10.3528 25.4658 10.4754 25.5625 10.5596C25.661 10.6437 25.7979 10.6858 25.9734 10.6858ZM28.6777 11H28.2319V6.82129H28.6777V11ZM29.5586 10.7153C29.5586 10.5954 29.5854 10.505 29.6392 10.4441C29.6947 10.3814 29.7734 10.3501 29.8755 10.3501C29.9793 10.3501 30.0599 10.3814 30.1172 10.4441C30.1763 10.505 30.2058 10.5954 30.2058 10.7153C30.2058 10.8317 30.1763 10.9212 30.1172 10.9839C30.0581 11.0465 29.9775 11.0779 29.8755 11.0779C29.7842 11.0779 29.7081 11.0501 29.6472 10.9946C29.5881 10.9373 29.5586 10.8442 29.5586 10.7153ZM29.5586 8.34399C29.5586 8.10229 29.6642 7.98145 29.8755 7.98145C30.0957 7.98145 30.2058 8.10229 30.2058 8.34399C30.2058 8.46037 30.1763 8.54989 30.1172 8.61255C30.0581 8.67521 29.9775 8.70654 29.8755 8.70654C29.7842 8.70654 29.7081 8.67879 29.6472 8.62329C29.5881 8.566 29.5586 8.4729 29.5586 8.34399ZM15.9939 18H15.5588V15.2017C15.5588 14.9689 15.566 14.7487 15.5803 14.541C15.5427 14.5786 15.5007 14.618 15.4541 14.6592C15.4076 14.7004 15.1945 14.8749 14.8149 15.1829L14.5786 14.8767L15.6179 14.0737H15.9939V18ZM20.092 16.0315C20.092 16.71 19.9846 17.2167 19.7698 17.5515C19.5567 17.8863 19.23 18.0537 18.7896 18.0537C18.367 18.0537 18.0457 17.8827 17.8254 17.5408C17.6052 17.197 17.4951 16.6939 17.4951 16.0315C17.4951 15.3476 17.6016 14.84 17.8147 14.5088C18.0278 14.1776 18.3527 14.012 18.7896 14.012C19.2157 14.012 19.5388 14.1847 19.759 14.5303C19.981 14.8758 20.092 15.3762 20.092 16.0315ZM17.9463 16.0315C17.9463 16.6026 18.0134 17.0189 18.1477 17.2803C18.282 17.5399 18.4959 17.6697 18.7896 17.6697C19.0868 17.6697 19.3016 17.5381 19.4341 17.2749C19.5684 17.0099 19.6355 16.5955 19.6355 16.0315C19.6355 15.4675 19.5684 15.0549 19.4341 14.7935C19.3016 14.5303 19.0868 14.3987 18.7896 14.3987C18.4959 14.3987 18.282 14.5285 18.1477 14.7881C18.0134 15.0459 17.9463 15.4604 17.9463 16.0315ZM23.0703 14.9976C23.0703 15.2482 22.9996 15.4532 22.8582 15.6125C22.7185 15.7719 22.5198 15.8784 22.262 15.9321V15.9536C22.5771 15.993 22.8107 16.0933 22.9629 16.2544C23.1151 16.4155 23.1912 16.6268 23.1912 16.8882C23.1912 17.2624 23.0614 17.5506 22.8018 17.7529C22.5422 17.9535 22.1733 18.0537 21.6953 18.0537C21.4876 18.0537 21.297 18.0376 21.1233 18.0054C20.9514 17.9749 20.784 17.9203 20.6211 17.8416V17.4172C20.7912 17.5014 20.972 17.5658 21.1636 17.6106C21.3569 17.6536 21.5396 17.675 21.7114 17.675C22.39 17.675 22.7292 17.4092 22.7292 16.8774C22.7292 16.4012 22.3551 16.1631 21.6067 16.1631H21.22V15.7791H21.6121C21.9182 15.7791 22.1608 15.7119 22.3398 15.5776C22.5189 15.4416 22.6084 15.2536 22.6084 15.0137C22.6084 14.8221 22.5422 14.6717 22.4097 14.5625C22.279 14.4533 22.1008 14.3987 21.8752 14.3987C21.7034 14.3987 21.5413 14.422 21.3892 14.4685C21.237 14.5151 21.0633 14.601 20.8682 14.7263L20.6426 14.4255C20.8037 14.2984 20.989 14.1991 21.1985 14.1274C21.4097 14.054 21.6318 14.0173 21.8645 14.0173C22.2458 14.0173 22.5422 14.1051 22.7534 14.2805C22.9647 14.4542 23.0703 14.6932 23.0703 14.9976ZM25.8579 16.4934C25.9349 16.3842 26.0522 16.241 26.2097 16.0637L27.1604 15.0566H27.6895L26.4971 16.3108L27.7727 18H27.2329L26.1936 16.6089L25.8579 16.8989V18H25.4175V13.8213H25.8579V16.0369C25.8579 16.1353 25.8507 16.2875 25.8364 16.4934H25.8579ZM31.801 18H31.3499L30.5576 15.3708C30.52 15.2545 30.4779 15.1077 30.4314 14.9304C30.3848 14.7532 30.3607 14.6466 30.3589 14.6108C30.3195 14.8472 30.2568 15.1059 30.1709 15.387L29.4028 18H28.9517L27.907 14.0737H28.3904L29.0107 16.4988C29.0967 16.8389 29.1593 17.1469 29.1987 17.4226C29.2471 17.095 29.3187 16.7745 29.4136 16.4612L30.1172 14.0737H30.6006L31.3391 16.4827C31.425 16.7602 31.4976 17.0735 31.5566 17.4226C31.5907 17.1684 31.6551 16.8586 31.75 16.4934L32.3677 14.0737H32.8511L31.801 18Z" fill="#353434"/>
<path d="M23.2104 30.5435C23.2104 30.7485 23.1526 30.9163 23.0369 31.0466C22.9226 31.177 22.76 31.2642 22.5491 31.3081V31.3257C22.8069 31.3579 22.998 31.4399 23.1226 31.5718C23.2471 31.7036 23.3093 31.8765 23.3093 32.0903C23.3093 32.3965 23.2031 32.6323 22.9907 32.7979C22.7783 32.9619 22.4766 33.0439 22.0854 33.0439C21.9155 33.0439 21.7595 33.0308 21.6174 33.0044C21.4768 32.9795 21.3398 32.9348 21.2065 32.8704V32.5232C21.3457 32.592 21.4937 32.6448 21.6504 32.6814C21.8086 32.7166 21.958 32.7341 22.0986 32.7341C22.6538 32.7341 22.9314 32.5166 22.9314 32.0815C22.9314 31.6919 22.6252 31.4971 22.0129 31.4971H21.6965V31.1829H22.0173C22.2678 31.1829 22.4663 31.1279 22.6128 31.0181C22.7593 30.9067 22.8325 30.7529 22.8325 30.5566C22.8325 30.3999 22.7783 30.2769 22.6699 30.1875C22.563 30.0981 22.4172 30.0535 22.2327 30.0535C22.092 30.0535 21.9595 30.0725 21.835 30.1106C21.7104 30.1487 21.5684 30.219 21.4087 30.3215L21.2241 30.0754C21.356 29.9714 21.5076 29.8901 21.679 29.8315C21.8518 29.7715 22.0334 29.7415 22.2239 29.7415C22.5359 29.7415 22.7783 29.8132 22.9512 29.9568C23.124 30.0989 23.2104 30.2944 23.2104 30.5435ZM25.9241 31.3894C25.9241 31.9446 25.8362 32.3591 25.6604 32.6331C25.4861 32.907 25.2188 33.0439 24.8584 33.0439C24.5127 33.0439 24.2498 32.9041 24.0696 32.6243C23.8894 32.343 23.7993 31.9314 23.7993 31.3894C23.7993 30.8298 23.8865 30.4146 24.0608 30.1436C24.2351 29.8726 24.501 29.7371 24.8584 29.7371C25.207 29.7371 25.4714 29.8784 25.6516 30.1611C25.8333 30.4438 25.9241 30.8533 25.9241 31.3894ZM24.1685 31.3894C24.1685 31.8567 24.2234 32.1973 24.3333 32.4111C24.4431 32.6235 24.6182 32.7297 24.8584 32.7297C25.1016 32.7297 25.2773 32.6221 25.3857 32.4067C25.4956 32.1899 25.5505 31.8508 25.5505 31.3894C25.5505 30.928 25.4956 30.5903 25.3857 30.3765C25.2773 30.1611 25.1016 30.0535 24.8584 30.0535C24.6182 30.0535 24.4431 30.1597 24.3333 30.3721C24.2234 30.583 24.1685 30.9221 24.1685 31.3894ZM28.0664 31.7673C28.1294 31.678 28.2253 31.5608 28.3542 31.4158L29.1321 30.5918H29.5649L28.5894 31.6179L29.6331 33H29.1914L28.3411 31.8618L28.0664 32.0991V33H27.7061V29.5811H28.0664V31.3938C28.0664 31.4744 28.0605 31.5989 28.0488 31.7673H28.0664ZM32.929 33H32.5598L31.9116 30.8489C31.8809 30.7537 31.8464 30.6335 31.8083 30.4885C31.7703 30.3435 31.7505 30.2563 31.749 30.2271C31.7168 30.4204 31.6655 30.6321 31.5952 30.8621L30.9668 33H30.5977L29.7429 29.7876H30.1384L30.646 31.7717C30.7163 32.05 30.7676 32.302 30.7998 32.5276C30.8394 32.2595 30.8979 31.9973 30.9756 31.741L31.5513 29.7876H31.9468L32.551 31.7585C32.6213 31.9856 32.6807 32.2419 32.729 32.5276C32.7568 32.3196 32.8096 32.0662 32.8872 31.7673L33.3926 29.7876H33.7881L32.929 33Z" fill="#F3F3F3"/>
<path d="M23.4829 58.2617H23.0061V59H22.6567V58.2617H21.0945V57.9431L22.6194 55.77H23.0061V57.9299H23.4829V58.2617ZM22.6567 57.9299V56.8621C22.6567 56.6526 22.6641 56.416 22.6787 56.1523H22.6611C22.5908 56.293 22.5249 56.4094 22.4634 56.5017L21.4592 57.9299H22.6567ZM24.8584 55.7415C25.1514 55.7415 25.3835 55.8096 25.5549 55.9458C25.7263 56.082 25.812 56.2703 25.812 56.5105C25.812 56.6687 25.7629 56.813 25.6648 56.9434C25.5667 57.0737 25.4099 57.1924 25.1946 57.2993C25.4553 57.4238 25.6406 57.5549 25.7505 57.6926C25.8604 57.8289 25.9153 57.9871 25.9153 58.1672C25.9153 58.4338 25.8223 58.647 25.6362 58.8066C25.4502 58.9648 25.1953 59.0439 24.8716 59.0439C24.5288 59.0439 24.2651 58.9692 24.0806 58.8198C23.896 58.6689 23.8037 58.4558 23.8037 58.1804C23.8037 57.8127 24.0278 57.5264 24.4761 57.3213C24.2739 57.207 24.1289 57.084 24.041 56.9521C23.9531 56.8188 23.9092 56.6702 23.9092 56.5061C23.9092 56.2732 23.9949 56.0879 24.1663 55.9502C24.3391 55.811 24.5698 55.7415 24.8584 55.7415ZM24.1641 58.1892C24.1641 58.365 24.2249 58.502 24.3464 58.6001C24.4695 58.6982 24.6416 58.7473 24.8628 58.7473C25.0811 58.7473 25.251 58.696 25.3726 58.5935C25.4941 58.491 25.5549 58.3503 25.5549 58.1716C25.5549 58.0295 25.4978 57.9036 25.3835 57.7937C25.2693 57.6824 25.0701 57.5747 24.7859 57.4707C24.5676 57.5645 24.4094 57.6685 24.3113 57.7827C24.2131 57.8955 24.1641 58.031 24.1641 58.1892ZM24.854 56.0381C24.6709 56.0381 24.5273 56.082 24.4233 56.1699C24.3193 56.2578 24.2673 56.375 24.2673 56.5215C24.2673 56.6562 24.3105 56.772 24.397 56.8687C24.4834 56.9653 24.6431 57.062 24.876 57.1587C25.0854 57.0708 25.2334 56.9763 25.3198 56.8752C25.4077 56.7742 25.4517 56.6562 25.4517 56.5215C25.4517 56.3735 25.3982 56.2563 25.2913 56.1699C25.1858 56.082 25.04 56.0381 24.854 56.0381ZM28.0664 57.7673C28.1294 57.678 28.2253 57.5608 28.3542 57.4158L29.1321 56.5918H29.5649L28.5894 57.6179L29.6331 59H29.1914L28.3411 57.8618L28.0664 58.0991V59H27.7061V55.5811H28.0664V57.3938C28.0664 57.4744 28.0605 57.5989 28.0488 57.7673H28.0664ZM32.929 59H32.5598L31.9116 56.8489C31.8809 56.7537 31.8464 56.6335 31.8083 56.4885C31.7703 56.3435 31.7505 56.2563 31.749 56.2271C31.7168 56.4204 31.6655 56.6321 31.5952 56.8621L30.9668 59H30.5977L29.7429 55.7876H30.1384L30.646 57.7717C30.7163 58.05 30.7676 58.302 30.7998 58.5276C30.8394 58.2595 30.8979 57.9973 30.9756 57.741L31.5513 55.7876H31.9468L32.551 57.7585C32.6213 57.9856 32.6807 58.2419 32.729 58.5276C32.7568 58.3196 32.8096 58.0662 32.8872 57.7673L33.3926 55.7876H33.7881L32.929 59Z" fill="#F3F3F3"/>
<path d="M23.3313 45H21.2197V44.6858L22.0657 43.8354C22.3235 43.5747 22.4934 43.3887 22.5754 43.2773C22.6575 43.166 22.719 43.0576 22.76 42.9521C22.801 42.8467 22.8215 42.7332 22.8215 42.6116C22.8215 42.4402 22.7695 42.3047 22.6655 42.2051C22.5615 42.104 22.4172 42.0535 22.2327 42.0535C22.0994 42.0535 21.9727 42.0754 21.8525 42.1194C21.7339 42.1633 21.6013 42.2432 21.4548 42.3589L21.2615 42.1106C21.5574 41.8645 21.8796 41.7415 22.2283 41.7415C22.53 41.7415 22.7666 41.8191 22.938 41.9744C23.1094 42.1282 23.1951 42.3354 23.1951 42.5962C23.1951 42.7998 23.1379 43.0012 23.0237 43.2004C22.9094 43.3997 22.6956 43.6516 22.3821 43.9563L21.679 44.644V44.6616H23.3313V45ZM24.7991 43.0378C25.1375 43.0378 25.4033 43.1221 25.5967 43.2905C25.7915 43.4575 25.8889 43.6868 25.8889 43.9783C25.8889 44.3108 25.7827 44.5715 25.5703 44.7605C25.3594 44.9495 25.0679 45.0439 24.6958 45.0439C24.334 45.0439 24.0579 44.9861 23.8674 44.8704V44.5188C23.97 44.5847 24.0974 44.6367 24.2498 44.6748C24.4021 44.7114 24.5522 44.7297 24.7002 44.7297C24.958 44.7297 25.158 44.6689 25.3 44.5474C25.4436 44.4258 25.5154 44.25 25.5154 44.02C25.5154 43.5718 25.2407 43.3477 24.6914 43.3477C24.5522 43.3477 24.3662 43.3689 24.1333 43.4114L23.9443 43.2905L24.0652 41.7876H25.6626V42.1238H24.3772L24.2959 43.0884C24.4644 43.0547 24.6321 43.0378 24.7991 43.0378ZM28.0664 43.7673C28.1294 43.678 28.2253 43.5608 28.3542 43.4158L29.1321 42.5918H29.5649L28.5894 43.6179L29.6331 45H29.1914L28.3411 43.8618L28.0664 44.0991V45H27.7061V41.5811H28.0664V43.3938C28.0664 43.4744 28.0605 43.5989 28.0488 43.7673H28.0664ZM32.929 45H32.5598L31.9116 42.8489C31.8809 42.7537 31.8464 42.6335 31.8083 42.4885C31.7703 42.3435 31.7505 42.2563 31.749 42.2271C31.7168 42.4204 31.6655 42.6321 31.5952 42.8621L30.9668 45H30.5977L29.7429 41.7876H30.1384L30.646 43.7717C30.7163 44.05 30.7676 44.302 30.7998 44.5276C30.8394 44.2595 30.8979 43.9973 30.9756 43.741L31.5513 41.7876H31.9468L32.551 43.7585C32.6213 43.9856 32.6807 44.2419 32.729 44.5276C32.7568 44.3196 32.8096 44.0662 32.8872 43.7673L33.3926 41.7876H33.7881L32.929 45Z" fill="#F3F3F3"/>
<circle cx="15" cy="31" r="2.9" stroke="#F3F3F3" stroke-width="0.2"/>
<circle cx="15" cy="57" r="2.9" stroke="#F3F3F3" stroke-width="0.2"/>
<circle cx="15" cy="43" r="2.9" stroke="#F3F3F3" stroke-width="0.2"/>
</svg>
